<svg width="18" height="20" viewBox="0 0 18 20" fill="none" xmlns="http://www.w3.org/2000/svg">
<path d="M10.2073 17.5C10.0608 17.7526 9.85049 17.9622 9.59748 18.1079C9.34447 18.2537 9.05761 18.3304 8.76562 18.3304C8.47364 18.3304 8.18678 18.2537 7.93377 18.1079C7.68076 17.9622 7.47047 17.7526 7.32396 17.5M13.7656 6.66667C13.7656 5.34059 13.2388 4.06882 12.3012 3.13114C11.3635 2.19346 10.0917 1.66667 8.76562 1.66667C7.43954 1.66667 6.16777 2.19346 5.23009 3.13114C4.29241 4.06882 3.76562 5.34059 3.76562 6.66667C3.76562 12.5 1.26562 14.1667 1.26562 14.1667H16.2656C16.2656 14.1667 13.7656 12.5 13.7656 6.66667Z" stroke="#D19E44" stroke-width="1.67" stroke-linecap="round" stroke-linejoin="round"/>
</svg>
