<svg width="36" height="36" viewBox="0 0 36 36" fill="none" xmlns="http://www.w3.org/2000/svg">
<rect x="2" y="2" width="32" height="32" rx="16" fill="#FFEBCC"/>
<rect x="2" y="2" width="32" height="32" rx="16" stroke="#FFF4E2" stroke-width="4"/>
<g clip-path="url(#clip0_567_8186)">
<path d="M13.7809 16.5372C13.7809 16.7029 13.9152 16.8372 14.0809 16.8372H17.2312C17.3969 16.8372 17.5312 16.9716 17.5312 17.1372V21.5252H16.8937C16.728 21.5252 16.5937 21.6595 16.5937 21.8252V22.1628C16.5937 22.3285 16.728 22.4628 16.8937 22.4628H19.1064C19.2721 22.4628 19.4064 22.3285 19.4064 22.1628V21.8252C19.4064 21.6595 19.2721 21.5252 19.1064 21.5252H18.7688C18.6031 21.5252 18.4688 21.3909 18.4688 21.2252V17.1372C18.4688 16.9716 18.6031 16.8372 18.7688 16.8372H21.9192C22.0849 16.8372 22.2192 16.7029 22.2192 16.5372V14.3245C22.2192 14.1588 22.0849 14.0245 21.9192 14.0245H14.0809C13.9152 14.0245 13.7809 14.1588 13.7809 14.3245V16.5372ZM14.7185 15.2621C14.7185 15.0964 14.8528 14.9621 15.0185 14.9621H20.9816C21.1473 14.9621 21.2816 15.0964 21.2816 15.2621V15.5996C21.2816 15.7653 21.1473 15.8996 20.9816 15.8996H15.0185C14.8528 15.8996 14.7185 15.7653 14.7185 15.5996V15.2621Z" fill="#D19E44"/>
<path d="M11.6324 17.9521C11.4101 15.615 11.0933 13.5718 10.9727 12.8321C10.946 12.6684 10.791 12.5604 10.6276 12.5891L10.2955 12.6472C10.1323 12.6758 10.0223 12.8286 10.049 12.9921C10.2368 14.1411 10.9006 18.4515 10.9354 22.1633C10.937 22.329 11.0712 22.4628 11.2368 22.4628H11.5744C11.7401 22.4628 11.8746 22.3285 11.873 22.1628C11.8692 21.7481 11.8577 21.3263 11.84 20.9022C11.8328 20.731 11.9693 20.5876 12.1407 20.5876H14.4185C14.5841 20.5876 14.7185 20.7219 14.7185 20.8876V22.1628C14.7185 22.3285 14.8528 22.4628 15.0185 22.4628H15.356C15.5217 22.4628 15.656 22.3286 15.656 22.163C15.656 21.335 15.656 19.7675 15.656 19.1812C15.656 17.866 13.5564 17.778 13.5564 17.778H13.0676C13.0676 17.778 12.0313 17.7658 11.6324 17.9521ZM13.0604 18.7111C13.2256 18.7124 13.3992 18.7124 13.5637 18.7111C14.5957 18.703 14.7184 18.7434 14.7184 19.1812V19.35C14.7184 19.5157 14.5841 19.65 14.4184 19.65H12.1744C12.0087 19.65 11.8744 19.5157 11.8744 19.35V19.1812C11.8744 18.7555 11.9928 18.7028 13.0604 18.7111Z" fill="#D19E44"/>
<path d="M24.7632 22.4628C24.9289 22.4628 25.063 22.329 25.0646 22.1633C25.0994 18.453 25.7632 14.1412 25.951 12.9921C25.9777 12.8286 25.8677 12.6757 25.7045 12.6472L25.372 12.589C25.2088 12.5604 25.0539 12.6683 25.0271 12.8318C24.9067 13.5685 24.5913 15.5998 24.3676 17.9521C23.9686 17.7657 23.4616 17.7739 22.9323 17.778C22.7718 17.7792 22.6033 17.7792 22.4436 17.778C21.6555 17.7717 20.3439 17.7154 20.3439 19.1812V22.1628C20.3439 22.3285 20.4782 22.4628 20.6439 22.4628H20.9815C21.1472 22.4628 21.2815 22.3285 21.2815 22.1628V20.8876C21.2815 20.7219 21.4158 20.5876 21.5815 20.5876H23.8593C24.0307 20.5876 24.1671 20.731 24.16 20.9022C24.1423 21.3263 24.1308 21.7481 24.1269 22.1628C24.1254 22.3285 24.2599 22.4628 24.4255 22.4628H24.7632ZM24.1256 19.35C24.1256 19.5157 23.9912 19.65 23.8256 19.65H21.5816C21.4159 19.65 21.2816 19.5157 21.2816 19.35V19.1812C21.2816 18.7552 21.3775 18.7029 22.4363 18.7111C22.6008 18.7124 22.7744 18.7124 22.9396 18.7111C24.0022 18.7028 24.1255 18.7536 24.1255 19.1812L24.1256 19.35Z" fill="#D19E44"/>
</g>
<defs>
<clipPath id="clip0_567_8186">
<rect width="16" height="16" fill="white" transform="translate(10 9.5)"/>
</clipPath>
</defs>
</svg>
