<svg width="24" height="24" viewBox="0 0 24 24" fill="none" xmlns="http://www.w3.org/2000/svg"><path d="M5.626 8.045 C 5.423 8.152,5.146 8.432,5.043 8.635 C 4.933 8.849,4.934 9.151,5.044 9.372 C 5.161 9.606,11.394 15.839,11.628 15.956 C 11.733 16.008,11.874 16.040,12.000 16.040 C 12.126 16.040,12.267 16.008,12.372 15.956 C 12.606 15.839,18.839 9.606,18.956 9.372 C 19.132 9.019,19.041 8.639,18.701 8.299 C 18.361 7.959,17.980 7.868,17.628 8.044 C 17.516 8.100,16.558 9.029,14.730 10.853 L 12.000 13.579 9.270 10.853 C 7.442 9.029,6.484 8.100,6.372 8.044 C 6.152 7.934,5.835 7.935,5.626 8.045 " stroke="none" fill-rule="evenodd"></path></svg>