<svg width="37" height="36" viewBox="0 0 37 36" fill="none" xmlns="http://www.w3.org/2000/svg">
<rect x="2.71875" y="2" width="32" height="32" rx="16" fill="#FFEBCC"/>
<rect x="2.71875" y="2" width="32" height="32" rx="16" stroke="#FFF4E2" stroke-width="4"/>
<path d="M19.3857 11.3333H14.7191C14.3655 11.3333 14.0263 11.4738 13.7763 11.7239C13.5262 11.9739 13.3857 12.313 13.3857 12.6667V23.3333C13.3857 23.687 13.5262 24.0261 13.7763 24.2761C14.0263 24.5262 14.3655 24.6667 14.7191 24.6667H22.7191C23.0727 24.6667 23.4118 24.5262 23.6619 24.2761C23.9119 24.0261 24.0524 23.687 24.0524 23.3333V16M19.3857 11.3333L24.0524 16M19.3857 11.3333V16H24.0524" stroke="#D19E44" stroke-width="1.33333" stroke-linecap="round" stroke-linejoin="round"/>
</svg>
