<svg width="21" height="20" viewBox="0 0 21 20" fill="none" xmlns="http://www.w3.org/2000/svg">
<g clip-path="url(#clip0_1319_13413)">
<path d="M13.4336 16V14.6667C13.4336 13.9594 13.1526 13.2811 12.6525 12.781C12.1524 12.281 11.4742 12 10.7669 12H6.10026C5.39302 12 4.71474 12.281 4.21464 12.781C3.71455 13.2811 3.43359 13.9594 3.43359 14.6667V16M16.1003 7.33333V11.3333M18.1003 9.33333H14.1003M11.1003 6.66667C11.1003 8.13943 9.90635 9.33333 8.43359 9.33333C6.96083 9.33333 5.76693 8.13943 5.76693 6.66667C5.76693 5.19391 6.96083 4 8.43359 4C9.90635 4 11.1003 5.19391 11.1003 6.66667Z" stroke="white" stroke-width="1.5" stroke-linecap="round" stroke-linejoin="round"/>
</g>
<defs>
<clipPath id="clip0_1319_13413">
<rect width="16" height="16" fill="white" transform="translate(2.76562 2)"/>
</clipPath>
</defs>
</svg>
