<svg width="13" height="12" viewBox="0 0 13 12" fill="none" xmlns="http://www.w3.org/2000/svg">
<g clip-path="url(#clip0_1353_2687)">
<path d="M9.21875 10.5V9.5C9.21875 8.96957 9.00804 8.46086 8.63296 8.08579C8.25789 7.71071 7.74918 7.5 7.21875 7.5H3.21875C2.68832 7.5 2.17961 7.71071 1.80454 8.08579C1.42946 8.46086 1.21875 8.96957 1.21875 9.5V10.5M12.2188 10.5V9.5C12.2184 9.05686 12.0709 8.62639 11.7994 8.27616C11.5279 7.92593 11.1478 7.67578 10.7188 7.565M8.71875 1.565C9.14896 1.67515 9.53027 1.92535 9.80257 2.27616C10.0749 2.62696 10.2227 3.05841 10.2227 3.5025C10.2227 3.94659 10.0749 4.37804 9.80257 4.72884C9.53027 5.07965 9.14896 5.32985 8.71875 5.44M7.21875 3.5C7.21875 4.60457 6.32332 5.5 5.21875 5.5C4.11418 5.5 3.21875 4.60457 3.21875 3.5C3.21875 2.39543 4.11418 1.5 5.21875 1.5C6.32332 1.5 7.21875 2.39543 7.21875 3.5Z" stroke="#FFE2B6" stroke-width="1.25" stroke-linecap="round" stroke-linejoin="round"/>
</g>
<defs>
<clipPath id="clip0_1353_2687">
<rect width="12" height="12" fill="white" transform="translate(0.71875)"/>
</clipPath>
</defs>
</svg>
