<svg width="17" height="14" viewBox="0 0 17 14" fill="none" xmlns="http://www.w3.org/2000/svg">
<path d="M12.1003 13V11.6667C12.1003 10.9594 11.8193 10.2811 11.3192 9.78105C10.8191 9.28095 10.1408 9 9.43359 9H4.10026C3.39302 9 2.71474 9.28095 2.21464 9.78105C1.71455 10.2811 1.43359 10.9594 1.43359 11.6667V13M16.1003 13V11.6667C16.0998 11.0758 15.9032 10.5018 15.5412 10.0349C15.1792 9.56791 14.6723 9.23438 14.1003 9.08667M11.4336 1.08667C12.0072 1.23353 12.5156 1.56713 12.8787 2.03487C13.2418 2.50261 13.4388 3.07789 13.4388 3.67C13.4388 4.26211 13.2418 4.83739 12.8787 5.30513C12.5156 5.77287 12.0072 6.10647 11.4336 6.25333M9.43359 3.66667C9.43359 5.13943 8.23969 6.33333 6.76693 6.33333C5.29417 6.33333 4.10026 5.13943 4.10026 3.66667C4.10026 2.19391 5.29417 1 6.76693 1C8.23969 1 9.43359 2.19391 9.43359 3.66667Z" stroke="#976900" stroke-width="1.5" stroke-linecap="round" stroke-linejoin="round"/>
</svg>
