<svg width="401" height="400" viewBox="0 0 401 400" fill="none" xmlns="http://www.w3.org/2000/svg">
<g clip-path="url(#clip0_702_11472)">
<path opacity="0.05" d="M400 341C588.329 341 741 188.329 741 0C741 -188.329 588.329 -341 400 -341C211.671 -341 59 -188.329 59 0C59 188.329 211.671 341 400 341Z" stroke="#F4CA87" stroke-width="2" stroke-linecap="round" stroke-dasharray="1000 1000"/>
<path opacity="0.08" d="M468.611 322.789C646.882 284.896 760.682 109.66 722.789 -68.6109C684.896 -246.882 509.661 -360.681 331.389 -322.789C153.118 -284.896 39.3187 -109.66 77.2114 68.6109C115.104 246.882 290.34 360.681 468.611 322.789Z" stroke="#F4CA87" stroke-width="2" stroke-linecap="round" stroke-dasharray="1000 1000"/>
<path opacity="0.11" d="M529.749 291.421C690.696 219.763 763.079 31.1984 691.421 -129.749C619.763 -290.696 431.198 -363.079 270.251 -291.421C109.304 -219.763 36.9207 -31.1984 108.579 129.749C180.237 290.696 368.802 363.079 529.749 291.421Z" stroke="#F4CA87" stroke-width="2" stroke-linecap="round" stroke-dasharray="1000 1000"/>
<path opacity="0.15" d="M581.038 249.177C718.655 149.193 749.162 -43.4211 649.177 -181.038C549.193 -318.655 356.579 -349.162 218.962 -249.177C81.3456 -149.193 50.8386 43.4211 150.823 181.038C250.807 318.655 443.421 349.162 581.038 249.177Z" stroke="#F4CA87" stroke-width="2" stroke-linecap="round" stroke-dasharray="1000 1000"/>
<path opacity="0.18" d="M620.714 198.732C730.471 76.8348 720.629 -110.957 598.732 -220.714C476.835 -330.471 289.043 -320.629 179.286 -198.732C69.5299 -76.8348 79.3717 110.957 201.269 220.714C323.166 330.471 510.958 320.629 620.714 198.732Z" stroke="#F4CA87" stroke-width="2" stroke-linecap="round" stroke-dasharray="1000 1000"/>
<path opacity="0.21" d="M647.684 143C726.661 6.20829 679.792 -168.707 543.001 -247.683C406.209 -326.66 231.294 -279.792 152.317 -143C73.3407 -6.20834 120.209 168.707 257.001 247.683C393.792 326.66 568.707 279.792 647.684 143Z" stroke="#F4CA87" stroke-width="2" stroke-linecap="round" stroke-dasharray="1000 1000"/>
<path opacity="0.24" d="M661.541 84.9797C708.474 -59.4652 629.425 -214.608 484.98 -261.541C340.536 -308.474 185.393 -229.425 138.46 -84.9797C91.5272 59.4652 170.576 214.608 315.021 261.541C459.466 308.474 614.608 229.425 661.541 84.9797Z" stroke="#F4CA87" stroke-width="2" stroke-linecap="round" stroke-dasharray="1000 1000"/>
<path opacity="0.27" d="M662.554 27.5955C677.794 -117.409 572.6 -247.313 427.595 -262.554C282.591 -277.794 152.687 -172.6 137.446 -27.5955C122.206 117.409 227.4 247.313 372.404 262.554C517.409 277.794 647.313 172.6 662.554 27.5955Z" stroke="#F4CA87" stroke-width="2" stroke-linecap="round" stroke-dasharray="1000 1000"/>
<path opacity="0.3" d="M651.614 -26.4457C637.009 -165.408 512.517 -266.22 373.555 -251.614C234.592 -237.008 133.781 -112.517 148.386 26.4457C162.992 165.408 287.483 266.22 426.446 251.614C565.409 237.008 666.22 112.517 651.614 -26.4457Z" stroke="#F4CA87" stroke-width="2" stroke-linecap="round" stroke-dasharray="1000 1000"/>
<path opacity="0.33" d="M630.156 -74.7821C588.855 -201.894 452.33 -271.457 325.218 -230.156C198.107 -188.855 128.544 -52.3293 169.845 74.7821C211.146 201.894 347.671 271.457 474.783 230.156C601.894 188.855 671.457 52.3294 630.156 -74.7821Z" stroke="#F4CA87" stroke-width="2" stroke-linecap="round" stroke-dasharray="1000 1000"/>
<path opacity="0.37" d="M600.052 -115.5C536.263 -225.986 394.986 -263.841 284.5 -200.052C174.015 -136.263 136.159 5.01444 199.948 115.5C263.737 225.986 405.015 263.841 515.5 200.052C625.986 136.263 663.841 -5.01439 600.052 -115.5Z" stroke="#F4CA87" stroke-width="2" stroke-linecap="round" stroke-dasharray="968 1000"/>
<path opacity="0.4" d="M563.492 -147.209C482.191 -237.503 343.085 -244.793 252.791 -163.492C162.497 -82.1907 155.207 56.9147 236.508 147.209C317.809 237.503 456.915 244.793 547.209 163.492C637.503 82.1907 644.793 -56.9146 563.492 -147.209Z" stroke="#F4CA87" stroke-width="2" stroke-linecap="round" stroke-dasharray="875 1000"/>
<path opacity="0.43" d="M522.847 -169.085C429.464 -236.931 298.762 -216.23 230.915 -122.847C163.069 -29.4643 183.77 101.238 277.153 169.085C370.536 236.931 501.238 216.23 569.084 122.847C636.931 29.4643 616.23 -101.238 522.847 -169.085Z" stroke="#F4CA87" stroke-width="2" stroke-linecap="round" stroke-dasharray="788 1000"/>
<path opacity="0.46" d="M480.534 -180.882C380.636 -225.36 263.596 -180.432 219.118 -80.5339C174.641 19.3645 219.568 136.404 319.467 180.882C419.365 225.36 536.405 180.432 580.882 80.5338C625.36 -19.3645 580.433 -136.404 480.534 -180.882Z" stroke="#F4CA87" stroke-width="2" stroke-linecap="round" stroke-dasharray="705 1000"/>
<path opacity="0.49" d="M438.88 -182.914C337.859 -204.386 238.559 -139.9 217.086 -38.8795C195.614 62.1409 260.1 161.441 361.121 182.914C462.141 204.386 561.441 139.9 582.914 38.8795C604.386 -62.1409 539.9 -161.441 438.88 -182.914Z" stroke="#F4CA87" stroke-width="2" stroke-linecap="round" stroke-dasharray="627 1000"/>
<path opacity="0.53" d="M400 -176C302.798 -176 224 -97.2021 224 0C224 97.2021 302.798 176 400 176C497.202 176 576 97.2021 576 0C576 -97.2021 497.202 -176 400 -176Z" stroke="#F4CA87" stroke-width="2" stroke-linecap="round" stroke-dasharray="553 1000"/>
<path opacity="0.56" d="M365.695 -161.394C276.559 -142.448 219.66 -54.8302 238.606 34.3054C257.552 123.441 345.17 180.341 434.306 161.394C523.441 142.448 580.341 54.8302 561.395 -34.3054C542.448 -123.441 454.831 -180.341 365.695 -161.394Z" stroke="#F4CA87" stroke-width="2" stroke-linecap="round" stroke-dasharray="484 1000"/>
<path opacity="0.59" d="M337.362 -140.686C259.664 -106.092 224.72 -15.0613 259.314 62.6374C293.908 140.336 384.939 175.28 462.637 140.686C540.336 106.092 575.28 15.0613 540.686 -62.6374C506.092 -140.336 415.061 -175.28 337.362 -140.686Z" stroke="#F4CA87" stroke-width="2" stroke-linecap="round" stroke-dasharray="419 968"/>
<path opacity="0.62" d="M315.947 -115.689C252.054 -69.2681 237.89 20.1598 284.311 84.0533C330.732 147.947 420.16 162.111 484.054 115.689C547.947 69.2681 562.111 -20.1598 515.69 -84.0533C469.269 -147.947 379.841 -162.111 315.947 -115.689Z" stroke="#F4CA87" stroke-width="2" stroke-linecap="round" stroke-dasharray="359 898"/>
<path opacity="0.65" d="M301.905 -88.3252C253.125 -34.1488 257.499 49.3144 311.675 98.0951C365.852 146.876 449.315 142.502 498.096 88.3252C546.876 34.1488 542.502 -49.3144 488.326 -98.0951C434.149 -146.876 350.686 -142.502 301.905 -88.3252Z" stroke="#F4CA87" stroke-width="2" stroke-linecap="round" stroke-dasharray="304 829"/>
<path opacity="0.68" d="M295.211 -60.5C261.798 -2.62659 281.627 71.3759 339.5 104.789C397.373 138.202 471.376 118.373 504.789 60.5C538.202 2.6266 518.373 -71.3758 460.5 -104.789C402.627 -138.202 328.624 -118.373 295.211 -60.5Z" stroke="#F4CA87" stroke-width="2" stroke-linecap="round" stroke-dasharray="253 760"/>
<path opacity="0.71" d="M295.384 -33.9919C276.611 23.7861 308.23 85.843 366.008 104.616C423.786 123.389 485.843 91.7698 504.617 33.9919C523.39 -23.7861 491.77 -85.843 433.992 -104.616C376.214 -123.389 314.157 -91.7698 295.384 -33.9919Z" stroke="#F4CA87" stroke-width="2" stroke-linecap="round" stroke-dasharray="207 691"/>
<path opacity="0.75" d="M301.543 -10.3483C295.828 44.0284 335.276 92.7425 389.652 98.4577C444.029 104.173 492.743 64.725 498.458 10.3483C504.174 -44.0283 464.726 -92.7424 410.349 -98.4577C355.972 -104.173 307.258 -64.725 301.543 -10.3483Z" stroke="#F4CA87" stroke-width="2" stroke-linecap="round" stroke-dasharray="166 622"/>
<path opacity="0.78" d="M312.482 9.19851C317.562 57.5333 360.864 92.5981 409.198 87.5179C457.533 82.4377 492.598 39.1363 487.518 -9.1985C482.438 -57.5333 439.136 -92.5981 390.801 -87.5179C342.467 -82.4377 307.402 -39.1363 312.482 9.19851Z" stroke="#F4CA87" stroke-width="2" stroke-linecap="round" stroke-dasharray="129 553"/>
<path opacity="0.81" d="M326.769 23.7943C339.91 64.2389 383.35 86.3726 423.795 73.2314C464.239 60.0901 486.373 16.6502 473.232 -23.7943C460.091 -64.2389 416.651 -86.3726 376.206 -73.2314C335.762 -60.0901 313.628 -16.6503 326.769 23.7943Z" stroke="#F4CA87" stroke-width="2" stroke-linecap="round" stroke-dasharray="97 484"/>
<path opacity="0.84" d="M342.843 33C361.068 64.5673 401.433 75.3831 433.001 57.1577C464.568 38.9323 475.384 -1.4327 457.158 -33C438.933 -64.5673 398.568 -75.3831 367.001 -57.1577C335.433 -38.9323 324.617 1.43268 342.843 33Z" stroke="#F4CA87" stroke-width="2" stroke-linecap="round" stroke-dasharray="69 415"/>
<path opacity="0.87" d="M359.128 36.8022C379.453 59.3757 414.229 61.1983 436.803 40.873C459.376 20.5477 461.199 -14.2287 440.873 -36.8022C420.548 -59.3757 385.772 -61.1982 363.198 -40.873C340.625 -20.5477 338.802 14.2287 359.128 36.8022Z" stroke="#F4CA87" stroke-width="2" stroke-linecap="round" stroke-dasharray="46 346"/>
<path opacity="0.91" d="M374.137 35.5968C393.797 49.8803 421.313 45.5221 435.597 25.8626C449.88 6.20302 445.522 -21.3132 425.862 -35.5967C406.203 -49.8802 378.687 -45.5221 364.403 -25.8625C350.12 -6.203 354.478 21.3133 374.137 35.5968Z" stroke="#F4CA87" stroke-width="2" stroke-linecap="round" stroke-dasharray="28 276"/>
<path opacity="0.94" d="M386.578 30.147C403.227 37.5599 422.734 30.072 430.147 13.4223C437.56 -3.22742 430.072 -22.7341 413.422 -30.147C396.773 -37.5599 377.266 -30.072 369.853 -13.4223C362.44 3.22742 369.928 22.7341 386.578 30.147Z" stroke="#F4CA87" stroke-width="2" stroke-linecap="round" stroke-dasharray="14 207"/>
<path opacity="0.97" d="M395.426 21.5193C407.311 24.0454 418.993 16.4588 421.519 4.57407C424.045 -7.31068 416.459 -18.9931 404.574 -21.5192C392.689 -24.0454 381.007 -16.4588 378.481 -4.57404C375.954 7.31071 383.541 18.9931 395.426 21.5193Z" stroke="#F4CA87" stroke-width="2" stroke-linecap="round" stroke-dasharray="5 138"/>
<path d="M400 11C406.075 11 411 6.07513 411 0C411 -6.07513 406.075 -11 400 -11C393.925 -11 389 -6.07513 389 0C389 6.07513 393.925 11 400 11Z" stroke="#F4CA87" stroke-width="2" stroke-linecap="round"/>
</g>
<defs>
<clipPath id="clip0_702_11472">
<rect width="800" height="800" fill="white" transform="translate(0 -400)"/>
</clipPath>
</defs>
</svg>
