<svg width="25" height="24" viewBox="0 0 25 24" fill="none" xmlns="http://www.w3.org/2000/svg">
<path d="M16.0061 22.27H15.8761C11.4361 22.27 9.29613 20.52 8.92613 16.6C8.88613 16.19 9.18613 15.82 9.60613 15.78C10.0061 15.74 10.3861 16.05 10.4261 16.46C10.7161 19.6 12.1961 20.77 15.8861 20.77H16.0161C20.0861 20.77 21.5261 19.33 21.5261 15.26V8.74001C21.5261 4.67001 20.0861 3.23001 16.0161 3.23001H15.8861C12.1761 3.23001 10.6961 4.42001 10.4261 7.62001C10.3761 8.03001 10.0261 8.34001 9.60613 8.30001C9.18613 8.27001 8.88613 7.90001 8.91613 7.49001C9.25613 3.51001 11.4061 1.73001 15.8761 1.73001H16.0061C20.9161 1.73001 23.0161 3.83001 23.0161 8.74001V15.26C23.0161 20.17 20.9161 22.27 16.0061 22.27Z" fill="#10111A"/>
<path d="M15.7667 12.75H4.38672C3.97672 12.75 3.63672 12.41 3.63672 12C3.63672 11.59 3.97672 11.25 4.38672 11.25H15.7667C16.1767 11.25 16.5167 11.59 16.5167 12C16.5167 12.41 16.1767 12.75 15.7667 12.75Z" fill="#10111A"/>
<path d="M6.61703 16.1C6.42703 16.1 6.23703 16.03 6.08703 15.88L2.73703 12.53C2.44703 12.24 2.44703 11.76 2.73703 11.47L6.08703 8.12C6.37703 7.83 6.85703 7.83 7.14703 8.12C7.43703 8.41 7.43703 8.89 7.14703 9.18L4.32703 12L7.14703 14.82C7.43703 15.11 7.43703 15.59 7.14703 15.88C7.00703 16.03 6.80703 16.1 6.61703 16.1Z" fill="#10111A"/>
</svg>
