<svg width="13" height="12" viewBox="0 0 13 12" fill="none" xmlns="http://www.w3.org/2000/svg">
<g clip-path="url(#clip0_1445_229)">
<path d="M5.63081 1.92745L1.39857 8.99283C1.31131 9.14394 1.26514 9.31527 1.26465 9.48977C1.26416 9.66426 1.30937 9.83584 1.39579 9.98744C1.4822 10.139 1.6068 10.2654 1.75719 10.3539C1.90758 10.4424 2.07853 10.4899 2.25301 10.4919H10.7175C10.892 10.4899 11.0629 10.4424 11.2133 10.3539C11.3637 10.2654 11.4883 10.139 11.5747 9.98744C11.6611 9.83584 11.7063 9.66426 11.7058 9.48977C11.7054 9.31527 11.6592 9.14394 11.5719 8.99283L7.33969 1.92745C7.25061 1.7806 7.12519 1.65918 6.97552 1.57492C6.82586 1.49066 6.657 1.44639 6.48525 1.44639C6.31349 1.44639 6.14464 1.49066 5.99497 1.57492C5.8453 1.65918 5.71988 1.7806 5.63081 1.92745V1.92745Z" stroke="#F79009" stroke-width="1.49902" stroke-linecap="round" stroke-linejoin="round"/>
</g>
<defs>
<clipPath id="clip0_1445_229">
<rect width="11.9922" height="11.9922" fill="white" transform="translate(0.489258 -0.001297)"/>
</clipPath>
</defs>
</svg>
