<svg width="20" height="20" viewBox="0 0 20 20" fill="none" xmlns="http://www.w3.org/2000/svg"><path d="M8.633 1.701 C 7.677 1.765,6.684 2.039,5.802 2.482 C 3.610 3.583,2.102 5.692,1.749 8.150 C 1.672 8.688,1.672 9.645,1.749 10.183 C 2.229 13.527,4.807 16.104,8.150 16.584 C 8.414 16.622,8.760 16.641,9.167 16.641 C 9.881 16.641,10.363 16.583,11.025 16.414 C 11.934 16.183,12.865 15.744,13.604 15.197 C 13.725 15.107,13.838 15.033,13.854 15.033 C 13.870 15.033,14.589 15.740,15.450 16.604 C 16.603 17.759,17.055 18.191,17.162 18.240 C 17.342 18.322,17.636 18.328,17.818 18.252 C 18.228 18.081,18.426 17.569,18.240 17.162 C 18.191 17.055,17.759 16.603,16.604 15.450 C 15.740 14.589,15.033 13.870,15.033 13.854 C 15.033 13.838,15.107 13.725,15.197 13.604 C 15.911 12.638,16.407 11.417,16.584 10.183 C 16.661 9.645,16.661 8.688,16.584 8.150 C 16.020 4.226,12.580 1.435,8.633 1.701 M10.013 3.385 C 11.318 3.587,12.443 4.166,13.352 5.105 C 14.443 6.231,14.999 7.603,14.999 9.167 C 14.999 10.728,14.441 12.104,13.352 13.229 C 12.233 14.384,10.785 14.997,9.171 14.999 C 7.556 15.001,6.103 14.387,4.981 13.229 C 3.892 12.104,3.333 10.726,3.333 9.167 C 3.333 7.607,3.892 6.230,4.981 5.105 C 5.871 4.186,6.960 3.614,8.233 3.399 C 8.693 3.321,9.554 3.315,10.013 3.385 " stroke="none" fill-rule="evenodd"></path></svg>
