<svg width="16" height="16" viewBox="0 0 16 16" fill="none" xmlns="http://www.w3.org/2000/svg">
<path d="M11.7656 15C13.4225 15 14.7656 13.6569 14.7656 12C14.7656 10.3431 13.4225 9 11.7656 9C10.1088 9 8.76562 10.3431 8.76562 12C8.76562 13.6569 10.1088 15 11.7656 15Z" stroke="#3D404D" stroke-width="1.5" stroke-linecap="round" stroke-linejoin="round"/>
<path d="M19.1656 15C19.0325 15.3016 18.9928 15.6362 19.0516 15.9606C19.1104 16.285 19.2651 16.5843 19.4956 16.82L19.5556 16.88C19.7416 17.0657 19.8891 17.2863 19.9897 17.5291C20.0904 17.7719 20.1422 18.0322 20.1422 18.295C20.1422 18.5578 20.0904 18.8181 19.9897 19.0609C19.8891 19.3037 19.7416 19.5243 19.5556 19.71C19.3699 19.896 19.1493 20.0435 18.9065 20.1441C18.6637 20.2448 18.4035 20.2966 18.1406 20.2966C17.8778 20.2966 17.6175 20.2448 17.3747 20.1441C17.1319 20.0435 16.9114 19.896 16.7256 19.71L16.6656 19.65C16.4299 19.4195 16.1306 19.2648 15.8062 19.206C15.4818 19.1472 15.1472 19.1869 14.8456 19.32C14.5499 19.4468 14.2976 19.6572 14.1199 19.9255C13.9423 20.1938 13.8469 20.5082 13.8456 20.83V21C13.8456 21.5304 13.6349 22.0391 13.2598 22.4142C12.8848 22.7893 12.3761 23 11.8456 23C11.3152 23 10.8065 22.7893 10.4314 22.4142C10.0563 22.0391 9.84562 21.5304 9.84562 21V20.91C9.83788 20.579 9.73074 20.258 9.53814 19.9887C9.34553 19.7194 9.07636 19.5143 8.76562 19.4C8.46401 19.2669 8.12943 19.2272 7.80504 19.286C7.48064 19.3448 7.1813 19.4995 6.94562 19.73L6.88562 19.79C6.69988 19.976 6.4793 20.1235 6.23651 20.2241C5.99371 20.3248 5.73346 20.3766 5.47062 20.3766C5.20779 20.3766 4.94754 20.3248 4.70474 20.2241C4.46195 20.1235 4.24137 19.976 4.05562 19.79C3.86967 19.6043 3.72215 19.3837 3.62151 19.1409C3.52086 18.8981 3.46905 18.6378 3.46905 18.375C3.46905 18.1122 3.52086 17.8519 3.62151 17.6091C3.72215 17.3663 3.86967 17.1457 4.05562 16.96L4.11562 16.9C4.34616 16.6643 4.50081 16.365 4.55963 16.0406C4.61845 15.7162 4.57874 15.3816 4.44562 15.08C4.31886 14.7842 4.10838 14.532 3.84009 14.3543C3.5718 14.1766 3.25741 14.0813 2.93563 14.08H2.76562C2.23519 14.08 1.72648 13.8693 1.35141 13.4942C0.976339 13.1191 0.765625 12.6104 0.765625 12.08C0.765625 11.5496 0.976339 11.0409 1.35141 10.6658C1.72648 10.2907 2.23519 10.08 2.76562 10.08H2.85562C3.18662 10.0723 3.50763 9.96512 3.77692 9.77251C4.04622 9.5799 4.25134 9.31074 4.36562 9C4.49874 8.69838 4.53845 8.36381 4.47963 8.03941C4.42081 7.71502 4.26616 7.41568 4.03562 7.18L3.97563 7.12C3.78967 6.93425 3.64215 6.71368 3.54151 6.47088C3.44086 6.22808 3.38905 5.96783 3.38905 5.705C3.38905 5.44217 3.44086 5.18192 3.54151 4.93912C3.64215 4.69632 3.78967 4.47575 3.97563 4.29C4.16137 4.10405 4.38195 3.95653 4.62474 3.85588C4.86754 3.75523 5.12779 3.70343 5.39062 3.70343C5.65346 3.70343 5.91371 3.75523 6.15651 3.85588C6.3993 3.95653 6.61988 4.10405 6.80562 4.29L6.86562 4.35C7.1013 4.58054 7.40064 4.73519 7.72504 4.794C8.04943 4.85282 8.38401 4.81312 8.68563 4.68H8.76562C9.06139 4.55324 9.31364 4.34276 9.49132 4.07447C9.66899 3.80618 9.76434 3.49179 9.76562 3.17V3C9.76562 2.46957 9.97634 1.96086 10.3514 1.58579C10.7265 1.21071 11.2352 1 11.7656 1C12.2961 1 12.8048 1.21071 13.1798 1.58579C13.5549 1.96086 13.7656 2.46957 13.7656 3V3.09C13.7669 3.41179 13.8623 3.72618 14.0399 3.99447C14.2176 4.26276 14.4699 4.47324 14.7656 4.6C15.0672 4.73312 15.4018 4.77282 15.7262 4.714C16.0506 4.65519 16.3499 4.50054 16.5856 4.27L16.6456 4.21C16.8314 4.02405 17.0519 3.87653 17.2947 3.77588C17.5375 3.67523 17.7978 3.62343 18.0606 3.62343C18.3235 3.62343 18.5837 3.67523 18.8265 3.77588C19.0693 3.87653 19.2899 4.02405 19.4756 4.21C19.6616 4.39575 19.8091 4.61632 19.9097 4.85912C20.0104 5.10192 20.0622 5.36217 20.0622 5.625C20.0622 5.88783 20.0104 6.14808 19.9097 6.39088C19.8091 6.63368 19.6616 6.85425 19.4756 7.04L19.4156 7.1C19.1851 7.33568 19.0304 7.63502 18.9716 7.95941C18.9128 8.28381 18.9525 8.61838 19.0856 8.92V9C19.2124 9.29577 19.4229 9.54802 19.6912 9.72569C19.9595 9.90337 20.2738 9.99872 20.5956 10H20.7656C21.2961 10 21.8048 10.2107 22.1798 10.5858C22.5549 10.9609 22.7656 11.4696 22.7656 12C22.7656 12.5304 22.5549 13.0391 22.1798 13.4142C21.8048 13.7893 21.2961 14 20.7656 14H20.6756C20.3538 14.0013 20.0395 14.0966 19.7712 14.2743C19.5029 14.452 19.2924 14.7042 19.1656 15Z" stroke="#3D404D" stroke-width="1.5" stroke-linecap="round" stroke-linejoin="round"/>
</svg>
