<svg width="17" height="17" viewBox="0 0 17 17" fill="none" xmlns="http://www.w3.org/2000/svg">
<path d="M3.64062 4.25C3.9858 4.25 4.26562 3.97018 4.26562 3.625C4.26562 3.27982 3.9858 3 3.64062 3C3.29545 3 3.01562 3.27982 3.01562 3.625C3.01562 3.97018 3.29545 4.25 3.64062 4.25ZM3.64062 10.5C3.9858 10.5 4.26562 10.2202 4.26562 9.875C4.26562 9.52982 3.9858 9.25 3.64062 9.25C3.29545 9.25 3.01562 9.52982 3.01562 9.875C3.01562 10.2202 3.29545 10.5 3.64062 10.5ZM2.39063 0.5C1.35509 0.5 0.515625 1.33947 0.515625 2.375V14.875C0.515625 15.2202 0.795447 15.5 1.14062 15.5H4.63581C4.45136 15.0942 4.34151 14.67 4.29381 14.25H1.76562V2.375C1.76562 2.02982 2.04545 1.75 2.39063 1.75H7.39062C7.7358 1.75 8.01562 2.02982 8.01562 2.375V5.10934C8.40304 4.95804 8.82464 4.875 9.26562 4.875V2.375C9.26562 1.33947 8.42616 0.5 7.39062 0.5H2.39063ZM6.14062 4.25C6.4858 4.25 6.76562 3.97018 6.76562 3.625C6.76562 3.27982 6.4858 3 6.14062 3C5.79545 3 5.51562 3.27982 5.51562 3.625C5.51562 3.97018 5.79545 4.25 6.14062 4.25ZM4.26562 6.75C4.26562 7.09518 3.9858 7.375 3.64062 7.375C3.29545 7.375 3.01562 7.09518 3.01562 6.75C3.01562 6.40482 3.29545 6.125 3.64062 6.125C3.9858 6.125 4.26562 6.40482 4.26562 6.75ZM11.4531 8.3125C11.4531 9.52062 10.4737 10.5 9.26562 10.5C8.0575 10.5 7.07812 9.52062 7.07812 8.3125C7.07812 7.10438 8.0575 6.125 9.26562 6.125C10.4737 6.125 11.4531 7.10438 11.4531 8.3125ZM15.8281 8.9375C15.8281 9.80045 15.1286 10.5 14.2656 10.5C13.4027 10.5 12.7031 9.80045 12.7031 8.9375C12.7031 8.07456 13.4027 7.375 14.2656 7.375C15.1286 7.375 15.8281 8.07456 15.8281 8.9375ZM13.0156 13.75C13.0156 15.2293 12.0156 16.75 9.26562 16.75C6.51563 16.75 5.51562 15.2293 5.51562 13.75C5.51562 12.6454 6.41106 11.75 7.51562 11.75H11.0156C12.1202 11.75 13.0156 12.6454 13.0156 13.75ZM13.8958 15.4997L13.9533 15.5C16.0158 15.5 16.7658 14.3595 16.7658 13.25C16.7658 12.4216 16.0943 11.75 15.2658 11.75H13.5778C14.0089 12.3015 14.2658 12.9957 14.2658 13.75C14.2658 14.3279 14.1538 14.9318 13.8958 15.4997Z" fill="#575965"/>
</svg>
