<svg width="15" height="20" viewBox="0 0 15 20" fill="none" xmlns="http://www.w3.org/2000/svg">
<path d="M7.64515 19.9995C7.63218 19.9903 7.61814 19.9779 7.60302 19.9654C7.36212 19.6667 5.87189 17.8 4.35358 15.4056C3.89771 14.643 3.60226 14.0477 3.65951 13.8938C3.80805 13.4936 6.45524 13.2743 7.2703 13.6372C7.51822 13.7474 7.51173 13.8927 7.51173 13.9781C7.51173 14.3443 7.49391 15.3273 7.49391 15.3273C7.49391 15.5304 7.65865 15.6952 7.86228 15.6946C8.06591 15.6946 8.23011 15.5288 8.22957 15.3252L8.22579 12.8767H8.22525C8.22525 12.6639 7.99299 12.611 7.94978 12.6024C7.52416 12.5997 6.66049 12.5975 5.73254 12.5975C3.68544 12.5975 3.22741 12.6818 2.88064 12.4538C2.12716 11.9612 0.89512 8.64049 0.866493 6.77163C0.825983 4.13579 2.38696 1.85373 4.58638 0.723237C5.50461 0.260884 6.54166 0 7.63813 0C11.1187 0 13.9858 2.6272 14.3671 6.00789C14.3671 6.01059 14.3671 6.01437 14.3676 6.01707C14.4378 6.83429 9.93369 7.00767 9.04301 6.77001C8.90636 6.73382 8.87179 6.59339 8.87179 6.53343C8.87125 5.91228 8.86693 4.16334 8.86693 4.16334C8.86639 3.95971 8.70111 3.79551 8.49748 3.79551C8.29439 3.79551 8.12965 3.96133 8.12965 4.16496L8.13775 7.3863C8.14423 7.58939 8.31437 7.64395 8.36136 7.65367C8.86801 7.65367 10.0525 7.65313 11.156 7.65313C12.6473 7.65313 13.2739 7.82597 13.6908 8.14303C13.9679 8.35422 14.0749 8.75878 13.9814 9.28487C13.1448 13.9624 7.84608 19.7586 7.64677 20L7.64515 19.9995Z" fill="#FC8019"/>
</svg>
