<svg width="21" height="20" viewBox="0 0 21 20" fill="none" xmlns="http://www.w3.org/2000/svg">
<path d="M3.76562 13.5001C3.76562 15.4331 5.33263 17.0001 7.26563 17.0001L15.0943 17.0001C14.3214 17.6255 13.3373 18.0001 12.2656 18.0001L7.26563 18.0001C4.78034 18.0001 2.76562 15.9853 2.76563 13.5001L2.76563 8.50006C2.76563 7.42841 3.14023 6.44425 3.76563 5.67139L3.76562 13.5001ZM5.49786 15.2678C5.02902 14.7989 4.76563 14.163 4.76563 13.5L4.76563 4.5C4.76563 3.83696 5.02902 3.20107 5.49786 2.73223C5.9667 2.26339 6.60259 2 7.26563 2L16.2656 2C16.9287 2 17.5646 2.26339 18.0334 2.73223C18.5022 3.20108 18.7656 3.83696 18.7656 4.5V13.5C18.7656 14.163 18.5022 14.7989 18.0334 15.2678C17.5646 15.7366 16.9287 16 16.2656 16L7.26563 16C6.60259 16 5.9667 15.7366 5.49786 15.2678ZM17.7656 6L17.7656 4.5C17.7656 4.12712 17.6267 3.76761 17.376 3.49158C17.1253 3.21555 16.7808 3.0428 16.4096 3.007L16.2656 3L14.7656 3V6L17.7656 6ZM13.7656 3L9.76563 3L9.76563 6L13.7656 6V3ZM8.76563 3L7.26563 3C6.89275 3.00002 6.53324 3.13892 6.25721 3.38962C5.98118 3.64032 5.80842 3.98484 5.77263 4.356L5.76563 4.5V6L8.76563 6L8.76563 3ZM9.76563 7L9.76563 11L13.7656 11L13.7656 7L9.76563 7ZM5.76563 11H8.76563L8.76563 7H5.76563L5.76563 11ZM9.76563 12V15L13.7656 15V12L9.76563 12ZM7.26563 15H8.76563V12H5.76563L5.76563 13.5C5.76565 13.8729 5.90455 14.2324 6.15525 14.5084C6.40594 14.7844 6.75047 14.9572 7.12163 14.993L7.26563 15ZM14.7656 12V15H16.2656C16.6385 15 16.998 14.8611 17.274 14.6104C17.5501 14.3597 17.7228 14.0152 17.7586 13.644L17.7656 13.5V12H14.7656ZM14.7656 7L14.7656 11H17.7656V7L14.7656 7Z" fill="#575965"/>
</svg>
