<svg width="13" height="12" viewBox="0 0 13 12" fill="none" xmlns="http://www.w3.org/2000/svg">
<g clip-path="url(#clip0_808_13202)">
<path d="M4.21875 11H2.71875C2.45353 11 2.19918 10.8946 2.01164 10.7071C1.82411 10.5196 1.71875 10.2652 1.71875 10V6.5C1.71875 6.23478 1.82411 5.98043 2.01164 5.79289C2.19918 5.60536 2.45353 5.5 2.71875 5.5H4.21875M7.71875 4.5V2.5C7.71875 2.10218 7.56071 1.72064 7.27941 1.43934C6.99811 1.15804 6.61657 1 6.21875 1L4.21875 5.5V11H9.85875C10.0999 11.0027 10.3339 10.9182 10.5177 10.762C10.7015 10.6058 10.8226 10.3885 10.8588 10.15L11.5487 5.65C11.5705 5.50668 11.5608 5.36034 11.5204 5.22113C11.48 5.08191 11.4098 4.95315 11.3147 4.84376C11.2196 4.73437 11.1018 4.64697 10.9695 4.58761C10.8373 4.52825 10.6937 4.49836 10.5487 4.5H7.71875Z" stroke="#12B76A" stroke-width="1.5" stroke-linecap="round" stroke-linejoin="round"/>
</g>
<defs>
<clipPath id="clip0_808_13202">
<rect width="12" height="12" fill="white" transform="translate(0.71875)"/>
</clipPath>
</defs>
</svg>
