<svg width="13" height="12" viewBox="0 0 13 12" fill="none" xmlns="http://www.w3.org/2000/svg">
<g clip-path="url(#clip0_808_13205)">
<path d="M9.21828 0.999998H10.5533C10.8363 0.994993 11.1112 1.09407 11.326 1.27841C11.5407 1.46275 11.6803 1.71953 11.7183 2V5.5C11.6803 5.78047 11.5407 6.03725 11.326 6.22159C11.1112 6.40593 10.8363 6.505 10.5533 6.5H9.21828M5.71828 7.5V9.5C5.71828 9.89782 5.87631 10.2794 6.15762 10.5607C6.43892 10.842 6.82045 11 7.21828 11L9.21828 6.5V0.999998H3.57828C3.33711 0.997271 3.10309 1.08179 2.91932 1.23799C2.73556 1.39419 2.61444 1.61154 2.57828 1.85L1.88828 6.35C1.86652 6.49332 1.87619 6.63966 1.91661 6.77887C1.95702 6.91809 2.02723 7.04685 2.12235 7.15624C2.21747 7.26563 2.33524 7.35303 2.46749 7.41239C2.59975 7.47175 2.74332 7.50164 2.88828 7.5H5.71828Z" stroke="#F04438" stroke-width="1.5" stroke-linecap="round" stroke-linejoin="round"/>
</g>
<defs>
<clipPath id="clip0_808_13205">
<rect width="12" height="12" fill="white" transform="translate(0.71875)"/>
</clipPath>
</defs>
</svg>
