<svg width="20" height="20" viewBox="0 0 20 20" fill="none" xmlns="http://www.w3.org/2000/svg">
<g clip-path="url(#clip0_654_6464)">
<path d="M8.3334 2.08333C8.3334 0.9325 9.2659 0 10.4167 0C11.5676 0 12.5001 0.9325 12.5001 2.08333C12.5001 3.23417 11.5676 4.16667 10.4167 4.16667C9.2659 4.16667 8.3334 3.23417 8.3334 2.08333ZM17.4126 11.4533C17.2659 11.7458 16.9726 11.9142 16.6659 11.9142C16.5409 11.9142 16.4134 11.8858 16.2942 11.8267L13.9259 10.6425C13.3809 10.37 12.9201 9.95333 12.5951 9.43667L12.1834 8.78333L11.0101 13.1967L12.0684 13.7975C12.8492 14.2417 13.3334 15.0742 13.3334 15.9717V19.1683C13.3334 19.6283 12.9609 20.0017 12.5001 20.0017C12.0392 20.0017 11.6667 19.6283 11.6667 19.1683V15.9717C11.6667 15.6725 11.5051 15.395 11.2451 15.2467L7.9309 13.365C6.97424 12.8217 6.4809 11.6933 6.73174 10.6217L7.58674 6.9675C7.41424 7.03083 7.24507 7.1025 7.0809 7.18417L5.3334 8.05833C5.11924 8.165 4.96174 8.35833 4.9009 8.59L4.2484 11.0492C4.13007 11.4942 3.67424 11.7575 3.22924 11.6408C2.78424 11.5225 2.51924 11.0667 2.63757 10.6217L3.29007 8.1625C3.47424 7.46917 3.94757 6.8875 4.58924 6.5675L6.3359 5.69333C7.24174 5.24083 8.25507 5.00167 9.26757 5.00167H10.0001C11.6717 5.00167 12.7276 6.52583 12.7726 6.59083L14.0059 8.55C14.1676 8.80833 14.3976 9.01667 14.6701 9.1525L17.0392 10.3375C17.4509 10.5433 17.6176 11.0442 17.4117 11.4558L17.4126 11.4533ZM9.54757 12.3642L10.9367 7.05667C10.6909 6.85833 10.3634 6.6675 10.0001 6.6675H9.3684L8.35424 11.0008C8.2709 11.3575 8.43507 11.7333 8.75424 11.915L9.54674 12.365L9.54757 12.3642ZM7.65924 14.8883C7.65257 14.8842 7.6459 14.88 7.63924 14.8767C7.1659 14.5933 6.55257 14.8525 6.42757 15.39L6.30007 15.9408L4.9584 18.8175C4.70174 19.3683 5.1034 20 5.71174 20C6.0334 20 6.32674 19.8142 6.46424 19.5225L7.84257 16.5942L8.03257 15.7667C8.11174 15.4233 7.9609 15.0683 7.6584 14.8875L7.65924 14.8883Z" fill="#3D404D"/>
</g>
<defs>
<clipPath id="clip0_654_6464">
<rect width="20" height="20" fill="white"/>
</clipPath>
</defs>
</svg>
