<svg width="111" height="57" viewBox="0 0 111 57" fill="none" xmlns="http://www.w3.org/2000/svg">
<path d="M12.0354 42.0465C11.5112 40.437 11.0607 39.7191 9.60841 39.6537V39.3347H17.8863V39.6537C15.9836 39.7526 15.5555 40.3221 16.0076 41.6828L19.2649 51.932H19.4092L22.1215 42.8393C22.7162 40.9075 22.2401 40.0158 20.4094 39.6489V39.3299H25.8597V39.6489C24.0274 40.019 23.4087 40.7879 22.4821 43.6832L18.5099 56.8293H16.987L13.01 44.9179L9.06178 56.8261H7.49244L2.64015 42.0465C2.11757 40.437 1.68796 39.893 0 39.6537V39.3347H8.30035V39.6537C6.51781 39.7526 6.20843 40.3221 6.63644 41.6828L9.89374 51.9831H10.0364L12.7487 44.1586L12.0354 42.0465Z" fill="black"/>
<path d="M25.5195 47.9887C25.5195 42.4677 29.0157 38.896 33.868 38.896C38.8629 38.896 42.2405 42.3368 42.2405 47.8834C42.2405 53.4539 38.7443 56.9936 33.868 56.9936C28.8971 57 25.5195 53.5591 25.5195 47.9887ZM37.8883 47.9392C37.8883 42.0226 36.5322 39.3729 33.7734 39.3729C31.0146 39.3729 29.8733 42.0226 29.8733 47.9392C29.8733 53.8814 31.2054 56.5294 33.9882 56.5294C36.747 56.5294 37.8883 53.8814 37.8883 47.9392Z" fill="black"/>
<path d="M44.1436 47.9887C44.1436 42.4677 47.6397 38.896 52.492 38.896C57.487 38.896 60.8645 42.3368 60.8645 47.8834C60.8645 53.4539 57.3683 56.9936 52.492 56.9936C47.5211 57 44.1436 53.5591 44.1436 47.9887ZM56.5107 47.9392C56.5107 42.0226 55.1562 39.3729 52.3958 39.3729C49.6354 39.3729 48.4957 42.0226 48.4957 47.9392C48.4957 53.8814 49.8278 56.5294 52.6106 56.5294C55.3934 56.5294 56.5107 53.8814 56.5107 47.9392Z" fill="black"/>
<path d="M62.5039 56.2327C64.4275 56.1577 64.8828 55.8371 64.8828 54.9693V40.9315C64.8828 40.0637 64.4307 39.7175 62.5039 39.6441V39.3251H70.8764C76.2048 39.3251 77.4647 41.4786 77.4647 43.4343C77.4647 45.3167 76.0621 46.9996 72.2325 47.4224V47.5213C76.1807 47.6202 78.0354 49.4275 78.0354 51.7789C78.0354 54.2546 76.442 56.5821 71.0912 56.5821H62.5039V56.2327ZM70.3057 47.3203C72.8978 47.3203 73.4685 45.7857 73.4685 43.5077C73.4685 41.4036 72.9459 39.7446 70.2336 39.7446H68.8791V47.3203H70.3057ZM70.5911 56.1338C73.6592 56.1338 73.9686 54.3009 73.9686 51.7518C73.9686 49.6222 73.2312 47.7414 70.3298 47.7414H68.8791V56.1338H70.5911Z" fill="black"/>
<path d="M79.5342 56.2327C81.4578 56.1577 81.9114 55.8371 81.9114 54.9693V40.9315C81.9114 40.0637 81.4594 39.7175 79.5342 39.6441V39.3251H88.2625V39.6441C86.2876 39.7175 85.9077 40.0397 85.9077 40.9315V56.1322H86.9785C90.5452 56.1322 91.6641 54.746 93.8522 49.8439L94.2321 49.8678L94.0189 56.5773H79.5342V56.2327Z" fill="black"/>
<path d="M106.672 42.8138C107.695 40.9075 107.361 40.1658 105.506 39.6457V39.3267H111V39.6457C109.407 39.9424 108.384 40.7847 106.832 43.6561L103.947 49.0287V54.9693C103.947 55.8371 104.428 56.1577 106.396 56.2327V56.5789H97.5379V56.2327C99.5128 56.1577 99.9889 55.8371 99.9889 54.9693V49.5456L95.85 41.6716C95.1366 40.3843 94.5676 39.9632 93.1377 39.6425V39.3235H102.058V39.6425C99.7036 39.7909 99.4936 40.4593 100.202 41.7705L103.628 48.5294L106.672 42.8138Z" fill="black"/>
<path d="M62.9464 1.9047C62.9451 2.34724 62.7899 2.77568 62.507 3.11712C62.224 3.45856 61.831 3.69192 61.3947 3.77747C61.8355 7.84845 63.0843 17.1453 65.3285 17.1453C67.3931 17.1453 69.9531 11.2335 71.2275 7.91385C70.8046 7.71571 70.4686 7.37108 70.2824 6.94438C70.0962 6.51768 70.0725 6.03811 70.2158 5.5953C70.359 5.15249 70.6594 4.77674 71.0608 4.53829C71.4622 4.29983 71.9371 4.21499 72.3968 4.29961C72.8564 4.38424 73.2694 4.63254 73.5585 4.99811C73.8476 5.36368 73.993 5.8215 73.9676 6.28601C73.9422 6.75051 73.7477 7.18991 73.4204 7.52208C73.0931 7.85425 72.6555 8.05646 72.1893 8.09092C71.3013 11.9641 69.3328 20.7266 68.5441 24.2296C68.4493 24.6506 68.2138 25.0271 67.876 25.2975C67.5381 25.5679 67.1181 25.7161 66.6846 25.718H42.9601C42.5254 25.7166 42.104 25.5687 41.7646 25.2984C41.4252 25.0281 41.1878 24.6514 41.091 24.2296C40.304 20.7202 38.3355 11.9673 37.4602 8.09092C36.9975 8.0559 36.5634 7.85451 36.239 7.52433C35.9145 7.19415 35.7219 6.75776 35.6971 6.29662C35.6722 5.83548 35.8169 5.3811 36.1041 5.01832C36.3912 4.65554 36.8012 4.40915 37.2575 4.32514C37.7138 4.24113 38.1853 4.32525 38.5838 4.56179C38.9824 4.79833 39.2808 5.17113 39.4234 5.61059C39.566 6.05005 39.5431 6.52613 39.3588 6.94997C39.1745 7.3738 38.8415 7.71641 38.422 7.91385C39.6964 11.2335 42.2564 17.1453 44.3211 17.1453C46.5653 17.1453 47.814 7.84845 48.2549 3.77747C47.7982 3.69225 47.3883 3.4448 47.1014 3.0812C46.8145 2.71759 46.6701 2.26261 46.6952 1.80097C46.7203 1.33933 46.9131 0.902486 47.2377 0.57178C47.5623 0.241073 47.9967 0.0390404 48.4599 0.00329765C48.9231 -0.0324451 49.3835 0.100538 49.7555 0.377488C50.1275 0.654437 50.3857 1.05648 50.482 1.50875C50.5783 1.96103 50.5061 2.43272 50.2789 2.83599C50.0518 3.23927 49.6851 3.54665 49.2471 3.7009C50.1817 8.44665 52.3281 17.1453 54.8304 17.1453C57.3327 17.1453 59.4791 8.44665 60.4153 3.7009C60.0844 3.58451 59.7921 3.37987 59.5703 3.10934C59.3485 2.83881 59.2056 2.5128 59.1574 2.16694C59.1092 1.82109 59.1574 1.46869 59.2969 1.14828C59.4363 0.827859 59.6616 0.551749 59.948 0.350122C60.2345 0.148495 60.5711 0.0291098 60.9212 0.00501523C61.2712 -0.0190794 61.6212 0.0530434 61.9328 0.213501C62.2444 0.373959 62.5057 0.616577 62.6882 0.914839C62.8706 1.2131 62.9671 1.55553 62.9672 1.9047" fill="#B4963F"/>
<path d="M41.4104 26.6703C41.2767 26.657 41.1416 26.6716 41.0139 26.7134C40.8862 26.7552 40.7688 26.8231 40.6691 26.9129C40.5694 27.0026 40.4898 27.1121 40.4352 27.2344C40.3807 27.3566 40.3525 27.4889 40.3525 27.6227C40.3525 27.7564 40.3807 27.8887 40.4352 28.0109C40.4898 28.1332 40.5694 28.2427 40.6691 28.3324C40.7688 28.4222 40.8862 28.4901 41.0139 28.5319C41.1416 28.5737 41.2767 28.5884 41.4104 28.575H68.211C68.3448 28.5884 68.4798 28.5737 68.6075 28.5319C68.7352 28.4901 68.8527 28.4222 68.9523 28.3324C69.052 28.2427 69.1317 28.1332 69.1862 28.0109C69.2407 27.8887 69.2689 27.7564 69.2689 27.6227C69.2689 27.4889 69.2407 27.3566 69.1862 27.2344C69.1317 27.1121 69.052 27.0026 68.9523 26.9129C68.8527 26.8231 68.7352 26.7552 68.6075 26.7134C68.4798 26.6716 68.3448 26.657 68.211 26.6703H41.4104Z" fill="#B4963F"/>
</svg>
