<svg width="20" height="20" viewBox="0 0 20 20" fill="none" xmlns="http://www.w3.org/2000/svg">
<rect width="20" height="20" fill="#E23744"/>
<path d="M0.00292969 6H19.9966V13.096H0.00292969V6Z" fill="#E23744"/>
<path d="M4.74679 8.57599L4.73296 9.02025L3.57428 10.2797C4.05829 10.2797 4.36515 10.275 4.54214 10.2651C4.49087 10.5042 4.44913 10.6996 4.40714 10.9925C4.17441 10.9728 3.81157 10.968 3.44848 10.968C3.04381 10.968 2.69008 10.9728 2.40625 10.9925L2.41569 10.5432L3.57428 9.28881C3.06708 9.28881 2.8809 9.29361 2.67161 9.29848C2.71799 9.07391 2.75062 8.82503 2.78317 8.57599C3.15074 8.59063 3.29501 8.59543 3.7743 8.59543C4.2164 8.59543 4.46752 8.59063 4.74679 8.57599ZM6.06374 8.44403C5.30973 8.44403 4.73296 9.11774 4.73296 9.92349C4.73296 10.5287 5.08189 10.9925 5.76119 10.9925C6.51967 10.9925 7.09205 10.3187 7.09205 9.50826C7.09205 8.90805 6.75224 8.44403 6.06374 8.44403ZM5.83565 10.345C5.6681 10.345 5.57045 10.1934 5.57045 9.89566C5.57045 9.4514 5.75191 9.09511 5.97536 9.09511C6.13811 9.09511 6.23584 9.2417 6.23584 9.54417C6.23576 9.98355 6.0591 10.345 5.83565 10.345ZM16.7213 8.4106C15.9576 8.4106 15.3731 9.09319 15.3731 9.90909C15.3731 10.5226 15.7266 10.9925 16.4149 10.9925C17.1833 10.9925 17.7632 10.3098 17.7632 9.4889C17.7632 8.88062 17.4192 8.4106 16.7213 8.4106ZM16.4758 10.3424C16.3082 10.3424 16.2106 10.1908 16.2106 9.8931C16.2106 9.44884 16.3922 9.09263 16.6155 9.09263C16.7782 9.09263 16.8761 9.23906 16.8761 9.54161C16.876 9.98115 16.6992 10.3424 16.4758 10.3424ZM11.0052 9.32288C11.0658 8.90805 11.0332 8.53209 10.5726 8.53209C10.2375 8.53209 9.87461 8.81528 9.61869 9.28881C9.6746 8.89813 9.64189 8.53209 9.18595 8.53209C8.84166 8.53209 8.46938 8.82983 8.21338 9.32288C8.27856 9.00066 8.26464 8.63445 8.24601 8.5564C7.98081 8.60038 7.74824 8.6247 7.42243 8.63445C7.43178 8.8591 7.41779 9.15181 7.37588 9.43028L7.26888 10.1625C7.22697 10.4506 7.18042 10.7826 7.13388 10.9925H7.99936C8.00408 10.8654 8.03671 10.6653 8.05991 10.4896L8.13436 9.98691C8.19482 9.65965 8.4553 9.27417 8.6554 9.27417C8.77176 9.27417 8.7672 9.38638 8.73457 9.59631L8.65076 10.1625C8.60877 10.4506 8.56239 10.7826 8.51576 10.9925H9.39052C9.39524 10.8654 9.42316 10.6653 9.44635 10.4896L9.52072 9.98691C9.58126 9.65965 9.84198 9.27417 10.0419 9.27417C10.1584 9.27417 10.1538 9.38142 10.135 9.52801L9.92604 10.9925H10.7244L11.0052 9.32288ZM15.1854 10.226L15.0923 10.8022C14.9481 10.8802 14.6781 10.9926 14.3664 10.9926C13.8359 10.9926 13.729 10.7094 13.8126 10.1089L13.9476 9.14229H13.6866L13.7603 8.51657L14.0454 8.50282L14.1525 8.0488L14.9572 7.74609L14.855 8.50282H15.4087C15.3902 8.58087 15.3248 9.01065 15.3065 9.14229H14.7664L14.6454 10.0357C14.6129 10.2651 14.6316 10.3482 14.7896 10.3482C14.9062 10.3481 15.0782 10.2797 15.1854 10.226ZM12.1322 10.5372C12.4252 10.5009 12.6268 10.2185 12.6752 9.93676L12.6834 9.86127C12.5575 9.83312 12.3756 9.81168 12.1992 9.83328C12.0311 9.85375 11.8913 9.92357 11.8162 10.0247C11.7595 10.0973 11.731 10.1841 11.7436 10.2877C11.7627 10.4428 11.9343 10.5614 12.1322 10.5372ZM11.8829 10.9835C11.4694 11.0343 11.1971 10.8701 11.1153 10.4968C11.0641 10.2619 11.1353 9.99434 11.2598 9.83471C11.4265 9.6259 11.6983 9.49186 12.0299 9.4514C12.2968 9.41829 12.5217 9.4346 12.732 9.47443L12.7407 9.43836C12.7467 9.3807 12.7528 9.32312 12.7444 9.25418C12.7226 9.07719 12.583 8.97179 12.2384 9.01417C12.0059 9.04272 11.7847 9.1267 11.6129 9.22227L11.4459 8.71739C11.6787 8.58375 11.9721 8.48202 12.3079 8.44075C12.9494 8.36206 13.4001 8.56663 13.4579 9.03689C13.4732 9.16197 13.475 9.29449 13.4592 9.41477C13.3769 9.99626 13.3241 10.4338 13.301 10.7271C13.2972 10.7725 13.2975 10.8505 13.3016 10.9611L12.5055 10.9604C12.5225 10.9145 12.5377 10.8524 12.5512 10.7744C12.5602 10.7232 12.5666 10.6585 12.5706 10.5801C12.4024 10.811 12.1711 10.948 11.8829 10.9835Z" fill="white"/>
</svg>
